<svg xmlns="http://www.w3.org/2000/svg" width="16.173" height="16.172" viewBox="0 0 16.173 16.172">
  <path id="instagram" d="M8.086,0C5.89,0,5.615.01,4.753.049A5.963,5.963,0,0,0,2.79.425a3.96,3.96,0,0,0-1.433.933A3.945,3.945,0,0,0,.425,2.79,5.945,5.945,0,0,0,.049,4.753C.008,5.615,0,5.889,0,8.086s.01,2.471.049,3.334a5.966,5.966,0,0,0,.376,1.963,3.966,3.966,0,0,0,.933,1.433,3.954,3.954,0,0,0,1.433.933,5.97,5.97,0,0,0,1.963.376c.863.04,1.137.049,3.334.049s2.471-.01,3.334-.049a5.984,5.984,0,0,0,1.963-.376,4.133,4.133,0,0,0,2.365-2.365,5.966,5.966,0,0,0,.376-1.963c.04-.863.049-1.137.049-3.334s-.01-2.471-.049-3.334a5.98,5.98,0,0,0-.376-1.963,3.969,3.969,0,0,0-.933-1.433A3.94,3.94,0,0,0,13.383.425,5.949,5.949,0,0,0,11.42.049C10.558.008,10.283,0,8.086,0Zm0,1.456c2.158,0,2.416.011,3.268.048a4.455,4.455,0,0,1,1.5.28,2.661,2.661,0,0,1,1.535,1.534,4.465,4.465,0,0,1,.278,1.5c.038.853.047,1.109.047,3.268s-.01,2.416-.05,3.268a4.55,4.55,0,0,1-.284,1.5,2.568,2.568,0,0,1-.606.931,2.523,2.523,0,0,1-.93.6,4.5,4.5,0,0,1-1.506.278c-.859.038-1.111.047-3.274.047s-2.416-.01-3.274-.05a4.585,4.585,0,0,1-1.507-.284,2.5,2.5,0,0,1-.929-.606,2.455,2.455,0,0,1-.606-.93,4.589,4.589,0,0,1-.283-1.506c-.03-.849-.041-1.111-.041-3.264S1.436,5.66,1.466,4.8A4.584,4.584,0,0,1,1.749,3.3a2.4,2.4,0,0,1,.606-.931,2.392,2.392,0,0,1,.929-.605,4.476,4.476,0,0,1,1.5-.284c.859-.03,1.112-.04,3.274-.04Zm0,2.478a4.152,4.152,0,1,0,4.152,4.152A4.152,4.152,0,0,0,8.086,3.934Zm0,6.848a2.7,2.7,0,1,1,2.7-2.7A2.695,2.695,0,0,1,8.086,10.782ZM13.374,3.77a.97.97,0,1,1-.97-.97A.971.971,0,0,1,13.374,3.77Z" fill="#282f37"/>
</svg>
