<svg xmlns="http://www.w3.org/2000/svg" xmlns:xlink="http://www.w3.org/1999/xlink" width="57.054" height="45" viewBox="0 0 57.054 45">
  <defs>
    <clipPath id="clip-path">
      <rect id="Rechteck_213" data-name="Rechteck 213" width="57.054" height="45" transform="translate(0 0)" fill="#282f37"/>
    </clipPath>
  </defs>
  <g id="logo" transform="translate(0.467 -5.857)">
    <g id="Gruppe_100" data-name="Gruppe 100" transform="translate(-0.467 5.857)" clip-path="url(#clip-path)">
      <path id="Pfad_128" data-name="Pfad 128" d="M21.638,7.982c1.975-.03,4-.022,6.063.043s4.167.186,6.3.4A53.2,53.2,0,0,1,40.49,9.436c.547.125,1.095.262,1.643.421s1.1.329,1.648.532a17.787,17.787,0,0,1,1.646.692,11.739,11.739,0,0,1,1.622.943l.934.654-.261.641c-.926,2.272-.9,1.071-1.061,1.487-.045.016-.125.039-.143.043l-.068.016-.04.008-.058.01-.041.006-.115.016-.173.019-.309.03-.593.053-1.169.1-2.33.208q-2.328.216-4.65.472c-3.092.344-6.167.75-9.181,1.252a84.734,84.734,0,0,0-8.774,1.883,35.992,35.992,0,0,0-4.031,1.364q-.238.1-.47.2c-.1.047-.086.039-.108.05l-.046.024c-.061.032-.119.065-.174.1a1.427,1.427,0,0,0-.283.221.527.527,0,0,0-.145.267.355.355,0,0,0,0,.048c0,.015,0,.035.017.045a.287.287,0,0,0,.124.008c.083-.008.162-.022.236-.036l.4-.082.044-.009.022,0,.011,0h.005l.028,0q.359-.043.721-.081c.483-.051.973-.093,1.468-.125q.372-.024.749-.038l.339-.013.332-.017c.45-.025.918-.057,1.386-.088,1.877-.127,3.785-.247,5.7-.326s3.842-.125,5.778-.12,3.881.059,5.832.184,3.909.319,5.867.621a40.847,40.847,0,0,1,5.864,1.313A26.871,26.871,0,0,1,51.573,23.5q.357.161.712.332l.353.178.093.047.065.033.075.041.305.174.61.349c.2.12.383.251.575.376.393.248.731.519,1.084.784.051.032.109.063.155.1l.085.116.17.232.17.232.042.058.021.029a.259.259,0,0,1,.009.027l.033.11.131.438.016.055v0l0,.013c0,.028.01.076.015.121a2.54,2.54,0,0,1,.007.292,2.886,2.886,0,0,1-.27,1.105,3.606,3.606,0,0,1-.638.935,5.379,5.379,0,0,1-2.215,1.338c-.11.043-.229.075-.345.108s-.233.069-.352.1c-.242.051-.48.111-.725.155l-.3.049c-.072.013-.149.021-.224.031-.15.019-.305.039-.436.049-.554.054-1.046.085-1.546.123s-.983.073-1.468.115c-.97.083-1.931.183-2.889.307a81.176,81.176,0,0,0-11.263,2.318c-.022-.079.409-.3.616-.442s.186-.226-.742-.015l-1.3.323c-.407.1-.784.2-1.137.29l-.988.249-.847.22c-1.044.259-1.743.429-2.22.512-.954.168-1.007.021-1.059-.128a2.859,2.859,0,0,1,.8-.347c.24-.087.516-.184.8-.283l.436-.15.436-.14c1.142-.37,2.058-.66,1.12-.444.342-.113.7-.217,1.071-.331l1.132-.344c.772-.219,1.562-.459,2.346-.665.391-.1.777-.216,1.159-.312l1.113-.285c.359-.094.709-.172,1.04-.254s.644-.159.937-.223c1.169-.273,1.992-.446,2.163-.511.086-.031.009-.033-.268,0s-.754.1-1.464.236c-.239.032-.567.081-.958.158s-.848.174-1.347.283-1.04.246-1.6.385-1.144.3-1.725.454l-1.718.48c-.556.163-1.091.318-1.584.457s-.939.276-1.325.379-.709.182-.946.234c-.952.2-.535-.068-.114-.337a2.012,2.012,0,0,0,.462-.34c.04-.073-.1-.1-.573,0l-1.666.568-2,.717c-.683.252-1.361.514-1.985.749-.313.116-.608.234-.882.344l-.753.3c-1.86.569,1.63-1.159-.176-.441-2.739,1.006-5.875,2.333-9.172,3.88S3.954,42.9.536,44.732c-.037-.07-.5.089-.534.029-.017-.03.074-.115.379-.311s.834-.5,1.684-.971c4.174-2.2,8.423-4.3,12.774-6.207a142.277,142.277,0,0,1,13.343-5.143c2.277-.742,4.581-1.417,6.916-2l.876-.219.88-.206c.294-.067.587-.138.882-.2l.886-.189c.295-.065.591-.123.888-.18l.89-.173c.6-.1,1.19-.217,1.79-.309q1.793-.293,3.605-.492.9-.1,1.809-.178c.6-.052,1.2-.1,1.789-.141l.435-.034.214-.017.107-.009.1-.01.2-.019.1-.01.088-.011.177-.022c.029,0,.06-.009.09-.014l.045-.008.008,0h0a.48.48,0,0,0,.128-.04.17.17,0,0,0,.091-.088.053.053,0,0,0,0-.032c0-.007-.009-.006-.013-.01l-.014-.01c-.018-.013-.037-.025-.056-.037s-.059-.035-.089-.049l-.375-.188c-.192-.093-.387-.182-.582-.271a23.111,23.111,0,0,0-2.458-.912,37.237,37.237,0,0,0-5.269-1.185c-1.8-.282-3.636-.47-5.481-.594s-3.7-.184-5.565-.2-3.73.02-5.6.087-3.742.171-5.632.288l-1.436.083c-.246.012-.489.025-.76.032l-.334.01-.329.015c-.44.022-.886.056-1.336.1q-.337.032-.678.069l-.536.061-.7.086-1.4.183c-.468.061-.936.121-1.39.167a10.564,10.564,0,0,1-1.272.066,3.561,3.561,0,0,1-.959-.135l-.1-.029-.087-.032c-.06-.021-.11-.045-.165-.068a2.69,2.69,0,0,1-.278-.151,2.555,2.555,0,0,1-.228-.164c-.068-.057-.132-.115-.192-.177a2.152,2.152,0,0,1-.17-.2,2.033,2.033,0,0,1-.172-.271.744.744,0,0,1-.046-.1l-.02-.056-.005-.014c0-.006-.016,0-.012-.01l-.009-.024c-.025-.063-.046-.127-.065-.192-.035-.13-.086-.252-.127-.376.04-.249.071-.481.114-.707a4.592,4.592,0,0,1,.187-.669,5.233,5.233,0,0,1,.7-1.306A7.288,7.288,0,0,1,9.5,19.327,12,12,0,0,1,11.317,18.1c.341-.19.7-.372,1.057-.545.181-.086.364-.169.547-.252l.343-.149c.4-.171.805-.331,1.208-.482.806-.3,1.611-.567,2.417-.812,1.612-.488,3.226-.89,4.841-1.247s3.231-.667,4.847-.947c3.233-.559,6.469-1,9.705-1.374q2.427-.281,4.854-.512l2.424-.224,1.206-.107.592-.054.28-.028.116-.013.018,0h.006l.047.325.093.6.043.258.041.231q.019.1.042.208c.01.056.022.108.036.161s.019.083.035.125.022.058.029.059L45,14.957a9.43,9.43,0,0,0-1.623-.876,17.967,17.967,0,0,0-1.9-.682,33.876,33.876,0,0,0-4.144-.928,76.89,76.89,0,0,0-8.719-.858c-1.471-.071-2.947-.113-4.425-.135q-1.108-.016-2.219-.017l-1.11,0-1.141.009-1.04.015-1.13.021-2.265.051a14.008,14.008,0,0,1-2.069-.066,4.525,4.525,0,0,1-1.341-.35l-.118-.055-.1-.057c-.036-.019-.069-.038-.1-.057s-.064-.038-.092-.058c-.059-.039-.112-.078-.164-.119a1.921,1.921,0,0,1-.148-.123,2.449,2.449,0,0,1-.256-.263,2.415,2.415,0,0,1-.22-.307,2.479,2.479,0,0,1-.206-.423,2.545,2.545,0,0,1-.149-.655c-.006-.057-.009-.114-.01-.173,0-.029,0-.059,0-.089V8.7c-.7.088.959-.131.788-.109v0l.018-.113.037-.226.267-1.593.329-.153.334-.151.668-.3,1.336-.6.334-.15c.111-.05.22-.1.344-.148l.722-.286,1.444-.573.722-.286c.122-.046.246-.095.366-.137l.329-.116.766-.269.383-.134.386-.126.772-.25c2.063-.656,4.157-1.218,6.275-1.667A57.029,57.029,0,0,1,39.857.011c1.008.03,1.8.092,2.4.16.15.017.289.033.418.051s.244.034.35.052.2.034.288.05l.124.025.124.027c.22.058.283.093.215.109a1.006,1.006,0,0,1-.2.01L43.147.478C42.484.457,41.411.429,40.128.462c-.641.012-1.333.047-2.05.088s-1.457.1-2.195.182A11.023,11.023,0,0,1,37.86.687c.5.029.99.058,1.984.035,0,.059-.251.122-.744.192s-1.231.149-2.207.26-2.192.252-3.64.465-3.13.493-5.033.893c1.907-.383,3.833-.664,5.772-.857.243-.016.426-.021.559-.019a1.478,1.478,0,0,1,.265.018c.093.021.035.058-.083.1s-.3.1-.443.147-.263.105-.26.144l-.718.073-.694.085c-.45.052-.868.117-1.226.173s-.655.11-.861.155-.323.079-.32.1l.052.312c.945-.165,2.372-.362,3.8-.5s2.871-.216,3.828-.235a20.978,20.978,0,0,0-3.82.313c.008.079.023.236.031.315l-.731.086-.769.1-.4.051-.4.058c-.272.04-.549.076-.828.119-1.119.171-2.293.378-3.461.616A51.352,51.352,0,0,0,21.07,5.637l.074.225c1.82-.557,4.107-1.207,6.428-1.714,1.16-.252,2.326-.474,3.44-.654.278-.046.554-.083.824-.124l.4-.059.4-.05.766-.1.729-.075a10.515,10.515,0,0,0-1.636.313c-.229.077-.221.137-.211.215q-2.1.307-4.186.726c-1.389.28-2.773.6-4.142.973l-.514.138-.511.15c-.34.1-.681.2-1.02.306-.675.222-1.352.434-2.018.684l-.5.182c-.075.029-.135.052-.2.079-.125.053-.246.106-.361.159a5.632,5.632,0,0,0-.6.316c.3-.123.594-.245.9-.357.075-.028.149-.058.226-.084l.564-.2.668-.236.674-.22c-.309.139-.663.281-1.05.447q-.291.122-.609.25l-.08.032-.04.016-.019.008-.006,0-.05.025-.084.044c-.111.059-.221.113-.335.167s-.229.107-.352.163l-.533.237-.163.071-.021.009-.01,0c-.005,0,0,0,0,.008a.114.114,0,0,1,0,.042.159.159,0,0,0,0,.085.179.179,0,0,0,.117.1.746.746,0,0,0,.151.037,5.6,5.6,0,0,0,.654.025c.227,0,.461,0,.688,0l2.117-.029" transform="translate(0.375 0.115)" fill="#282f37"/>
    </g>
  </g>
</svg>
